<svg width="800" height="800" viewBox="0 0 800 800" fill="none" xmlns="http://www.w3.org/2000/svg" xmlns:xlink="http://www.w3.org/1999/xlink">
  <defs>
    <linearGradient id="g1" x1="0" x2="1">
      <stop offset="0" stop-color="#7c3aed" />
      <stop offset="1" stop-color="#0891b2" />
    </linearGradient>
  </defs>
  <rect width="800" height="800" rx="24" fill="url(#g1)" />

  <!-- stylized friendly character -->
  <g transform="translate(160,160)">
    <ellipse cx="240" cy="300" rx="180" ry="220" fill="#0b1220" opacity="0.14" />

    <!-- hair -->
    <path d="M120 130 C100 80, 220 40, 300 110 C360 160, 320 220, 300 240 C220 300, 120 260, 120 130 Z" fill="#0b1220" opacity="0.9" />

    <!-- face -->
    <circle cx="240" cy="200" r="80" fill="#fde68a" />

    <!-- eyes -->
    <ellipse cx="215" cy="195" rx="8" ry="6" fill="#0b1220" />
    <ellipse cx="265" cy="195" rx="8" ry="6" fill="#0b1220" />

    <!-- smile -->
    <path d="M205 225 Q240 255 275 225" stroke="#0b1220" stroke-width="4" fill="none" stroke-linecap="round" stroke-linejoin="round" />

    <!-- body -->
    <rect x="160" y="280" width="160" height="180" rx="20" fill="#7c3aed" />
    <path d="M160 320 C120 360, 120 420, 160 440 L320 440 C360 420, 360 360, 320 320 Z" fill="#5b21b6" />

    <!-- accessory -->
    <circle cx="330" cy="330" r="12" fill="#f59e0b" />
  </g>
</svg>
